<svg xmlns="http://www.w3.org/2000/svg" width="72" height="72" fill="none"><path fill="#e74040" d="M0 36C0 16.118 16.118 0 36 0s36 16.118 36 36-16.118 36-36 36S0 55.882 0 36"/><g clip-path="url(#a)"><g fill="#fff" clip-path="url(#b)"><path d="M35.99 24.218c-6.974-6.1-15.843-.74-15.988 6.526-.037 1.852.497 3.656 1.562 5.32h6.897l1.227-2.045a.937.937 0 0 1 1.594-.021l2.589 4.067 3.773-7.965a.938.938 0 0 1 1.672-.043l3.234 6.006h7.868c5.829-9.109-5.69-19.486-14.427-11.845"/><path d="m41.165 37.445-2.62-4.867-3.707 7.824a.938.938 0 0 1-1.638.102l-2.685-4.22-.72 1.199a.94.94 0 0 1-.804.455h-5.945c.187.195-.806-.796 12.284 12.226a.937.937 0 0 0 1.322 0c12.889-12.822 12.097-12.031 12.283-12.226H41.99a.94.94 0 0 1-.825-.493"/></g></g><defs><clipPath id="a"><path fill="#fff" d="M20 20h32v32H20z"/></clipPath><clipPath id="b"><path fill="#fff" d="M20 20h32v32H20z"/></clipPath></defs></svg>