<svg xmlns="http://www.w3.org/2000/svg" width="72" height="72" fill="none"><path fill="#e74040" d="M0 36C0 16.118 16.118 0 36 0s36 16.118 36 36-16.118 36-36 36S0 55.882 0 36"/><g clip-path="url(#a)"><path fill="#fff" d="M30.25 40.588V43.5c0 4.653 3.785 8.5 8.438 8.5 4.652 0 8.437-3.847 8.437-8.5v-1.032a4.695 4.695 0 0 0 3.75-4.593 4.693 4.693 0 0 0-4.687-4.687 4.693 4.693 0 0 0-4.688 4.687 4.695 4.695 0 0 0 3.75 4.593V43.5c0 3.618-2.944 6.625-6.562 6.625s-6.563-3.007-6.563-6.625v-2.91c3.826-.702 8.242-5.453 9.006-9.972.501-2.969-.737-5.345-3.381-6.534v-1.271A2.816 2.816 0 0 0 34.938 20a2.816 2.816 0 0 0-2.813 2.813 2.816 2.816 0 0 0 2.813 2.812h1.664c2.157.799 3.064 2.41 2.68 4.68-.659 3.896-5.046 8.508-8.094 8.508-3.415 0-8.16-5.423-8.19-9.438-.013-1.79.925-3.073 2.75-3.75h1.69a2.816 2.816 0 0 0 2.812-2.812A2.816 2.816 0 0 0 27.438 20a2.816 2.816 0 0 0-2.813 2.813v1.261c-2.255 1.01-3.505 2.902-3.5 5.301.01 4.7 4.88 10.427 9.125 11.213m15-3.65h1.875v1.874H45.25z"/></g><defs><clipPath id="a"><path fill="#fff" d="M20 20h32v32H20z"/></clipPath></defs></svg>