<svg xmlns="http://www.w3.org/2000/svg" width="72" height="72" fill="none"><path fill="#e74040" d="M0 36C0 16.118 16.118 0 36 0s36 16.118 36 36-16.118 36-36 36S0 55.882 0 36"/><g fill="#fff" clip-path="url(#a)"><path d="M26.348 52h19.304c1.148 0 2.105-.879 2.105-1.958V26.628c0-1.08-.957-1.967-2.105-1.967H42.47v1.788a.57.57 0 0 1-.55.577H30.042a.597.597 0 0 1-.582-.577V24.66h-3.113c-1.148 0-2.104.888-2.104 1.967v23.414c0 1.08.956 1.958 2.104 1.958m4.296-17.948c0-.307.249-.556.556-.556h2.852v-2.853c0-.307.25-.556.557-.556h2.782c.308 0 .557.25.557.556v2.853H40.8c.307 0 .556.249.556.556v2.783c0 .307-.249.556-.556.556h-2.852v2.852c0 .308-.25.557-.557.557H34.61a.556.556 0 0 1-.557-.556V37.39H31.2a.557.557 0 0 1-.556-.556zm.226 9.6h10.26a.556.556 0 1 1 0 1.113H30.87a.556.556 0 1 1 0-1.113m-2.087 2.783h14.434a.556.556 0 1 1 0 1.113H28.783a.556.556 0 1 1 0-1.113"/><path d="M41.357 22.157h-2.605a.56.56 0 0 1-.544-.44c-.215-.994-1.16-1.717-2.246-1.717h-.007a2.314 2.314 0 0 0-2.244 1.738.56.56 0 0 1-.539.419h-2.598v3.756h10.782zM35.165 36.835v2.852h1.67v-2.852c0-.307.249-.557.556-.557h2.852v-1.67h-2.852a.557.557 0 0 1-.556-.556V31.2h-1.67v2.852c0 .307-.249.557-.556.557h-2.853v1.67h2.853c.307 0 .556.248.556.556"/></g><defs><clipPath id="a"><path fill="#fff" d="M20 20h32v32H20z"/></clipPath></defs></svg>